<svg version="1.1" id="Layer_1" xmlns="http://www.w3.org/2000/svg" xmlns:xlink="http://www.w3.org/1999/xlink" x="0px" y="0px"
	 width="100%" viewBox="0 0 2000 2000" enable-background="new 0 0 2000 2000" xml:space="preserve">
<path fill="#000000" opacity="1.000000" stroke="none" 
	d="
M1114.000000,2001.000000 
	C742.666687,2001.000000 371.833344,2001.000000 1.000000,2001.000000 
	C1.000000,1334.333374 1.000000,667.666687 1.000000,1.000000 
	C667.666687,1.000000 1334.333374,1.000000 2001.000000,1.000000 
	C2001.000000,667.666687 2001.000000,1334.333374 2001.000000,2001.000000 
	C1705.500000,2001.000000 1410.000000,2001.000000 1114.000000,2001.000000 
M826.500000,1675.000000 
	C1008.654541,1675.000000 1190.809204,1675.076782 1372.963501,1674.925659 
	C1403.983276,1674.900024 1435.057861,1676.504883 1466.014160,1673.002075 
	C1478.035767,1671.641846 1490.206665,1671.063843 1502.049683,1668.781250 
	C1522.355103,1664.867432 1542.347046,1659.772339 1561.463013,1651.355347 
	C1589.568359,1638.980103 1614.259644,1622.235229 1633.999390,1598.518555 
	C1650.567017,1578.612671 1662.732788,1556.287109 1671.076660,1531.798340 
	C1677.425903,1513.163940 1682.084229,1494.141724 1683.947876,1474.543457 
	C1685.596191,1457.210083 1687.812500,1439.823364 1687.828979,1422.458374 
	C1688.076050,1161.807495 1688.072266,901.156067 1687.907471,640.505005 
	C1687.887207,608.322327 1689.756958,576.073486 1685.991455,543.957214 
	C1684.698486,532.929016 1684.002075,521.771484 1681.811890,510.919464 
	C1676.293335,483.575378 1668.367920,457.068909 1654.357178,432.550140 
	C1642.469238,411.746216 1627.504883,393.671997 1609.011108,378.723724 
	C1589.577148,363.015381 1567.507690,351.836700 1543.776855,343.909119 
	C1528.520386,338.812469 1512.987427,334.931458 1497.033447,333.017609 
	C1480.952271,331.088440 1464.813599,328.228363 1448.697510,328.211395 
	C1169.881104,327.917480 891.064209,327.983948 612.247437,328.042603 
	C596.822205,328.045837 581.361938,328.135590 565.981995,329.152466 
	C551.326355,330.121399 536.609802,331.567505 522.177979,334.211609 
	C497.299316,338.769745 473.521729,346.832550 450.875183,358.432678 
	C427.203979,370.557617 407.601654,387.496338 390.963348,407.796906 
	C376.590485,425.333374 366.597900,445.536896 358.945251,466.893890 
	C350.465698,490.558716 345.878998,515.076965 343.125122,539.934509 
	C341.765259,552.209229 341.320038,564.617249 341.083191,576.976807 
	C340.751190,594.302734 340.999390,611.639832 340.999390,628.972107 
	C340.999390,767.130554 340.514465,905.291260 341.135834,1043.446899 
	C341.756561,1181.457397 338.386230,1319.489624 343.134064,1457.474365 
	C343.525513,1468.851196 345.184814,1480.284790 347.355652,1491.478516 
	C351.359039,1512.121704 357.053864,1532.266357 365.703033,1551.612427 
	C373.800079,1569.723389 383.986969,1586.423584 396.968048,1601.239624 
	C409.343903,1615.364624 423.506439,1627.667847 439.796051,1637.292847 
	C458.987701,1648.632446 479.168488,1657.802612 500.902557,1662.857056 
	C515.579468,1666.270142 530.484253,1669.043701 545.439148,1670.832764 
	C563.044861,1672.938843 580.808838,1674.718628 598.514526,1674.818359 
	C674.174255,1675.244995 749.837830,1675.000000 826.500000,1675.000000 
z"/>
<path fill="#76CAEE" opacity="1.000000" stroke="none" 
	d="
M826.000000,1675.000000 
	C749.837830,1675.000000 674.174255,1675.244995 598.514526,1674.818359 
	C580.808838,1674.718628 563.044861,1672.938843 545.439148,1670.832764 
	C530.484253,1669.043701 515.579468,1666.270142 500.902557,1662.857056 
	C479.168488,1657.802612 458.987701,1648.632446 439.796051,1637.292847 
	C423.506439,1627.667847 409.343903,1615.364624 396.968048,1601.239624 
	C383.986969,1586.423584 373.800079,1569.723389 365.703033,1551.612427 
	C357.053864,1532.266357 351.359039,1512.121704 347.355652,1491.478516 
	C345.184814,1480.284790 343.525513,1468.851196 343.134064,1457.474365 
	C338.386230,1319.489624 341.756561,1181.457397 341.135834,1043.446899 
	C340.514465,905.291260 340.999390,767.130554 340.999390,628.972107 
	C340.999390,611.639832 340.751190,594.302734 341.083191,576.976807 
	C341.320038,564.617249 341.765259,552.209229 343.125122,539.934509 
	C345.878998,515.076965 350.465698,490.558716 358.945251,466.893890 
	C366.597900,445.536896 376.590485,425.333374 390.963348,407.796906 
	C407.601654,387.496338 427.203979,370.557617 450.875183,358.432678 
	C473.521729,346.832550 497.299316,338.769745 522.177979,334.211609 
	C536.609802,331.567505 551.326355,330.121399 565.981995,329.152466 
	C581.361938,328.135590 596.822205,328.045837 612.247437,328.042603 
	C891.064209,327.983948 1169.881104,327.917480 1448.697510,328.211395 
	C1464.813599,328.228363 1480.952271,331.088440 1497.033447,333.017609 
	C1512.987427,334.931458 1528.520386,338.812469 1543.776855,343.909119 
	C1567.507690,351.836700 1589.577148,363.015381 1609.011108,378.723724 
	C1627.504883,393.671997 1642.469238,411.746216 1654.357178,432.550140 
	C1668.367920,457.068909 1676.293335,483.575378 1681.811890,510.919464 
	C1684.002075,521.771484 1684.698486,532.929016 1685.991455,543.957214 
	C1689.756958,576.073486 1687.887207,608.322327 1687.907471,640.505005 
	C1688.072266,901.156067 1688.076050,1161.807495 1687.828979,1422.458374 
	C1687.812500,1439.823364 1685.596191,1457.210083 1683.947876,1474.543457 
	C1682.084229,1494.141724 1677.425903,1513.163940 1671.076660,1531.798340 
	C1662.732788,1556.287109 1650.567017,1578.612671 1633.999390,1598.518555 
	C1614.259644,1622.235229 1589.568359,1638.980103 1561.463013,1651.355347 
	C1542.347046,1659.772339 1522.355103,1664.867432 1502.049683,1668.781250 
	C1490.206665,1671.063843 1478.035767,1671.641846 1466.014160,1673.002075 
	C1435.057861,1676.504883 1403.983276,1674.900024 1372.963501,1674.925659 
	C1190.809204,1675.076782 1008.654541,1675.000000 826.000000,1675.000000 
M997.267395,1520.545410 
	C1019.779785,1527.609009 1042.918579,1531.406494 1066.395630,1532.670288 
	C1100.805786,1534.522705 1134.509277,1529.860229 1167.403076,1519.664307 
	C1225.763184,1501.574829 1273.074097,1466.922363 1311.001831,1419.939453 
	C1365.302490,1352.674561 1391.874512,1274.781494 1393.504639,1188.595459 
	C1393.943726,1165.374878 1392.357910,1141.985474 1389.885864,1118.867676 
	C1384.841431,1071.695312 1370.899780,1027.006714 1348.368408,985.187378 
	C1339.462524,968.657959 1330.675171,951.959473 1316.520630,938.913696 
	C1313.426758,936.062134 1311.175049,932.074524 1309.199463,928.265747 
	C1283.891724,879.474426 1258.698242,830.623657 1233.488892,781.781311 
	C1195.751099,708.665833 1158.016968,635.548401 1120.294189,562.425232 
	C1096.239990,515.797607 1072.211304,469.156769 1048.152588,422.531372 
	C1047.599487,421.459595 1046.824097,420.502502 1045.818359,418.989105 
	C1037.300659,439.116791 1029.070435,458.565552 1020.302734,477.599304 
	C1008.145020,455.001526 995.987244,432.403748 983.483704,409.163208 
	C973.778076,427.635925 964.499939,445.295685 955.221436,462.955231 
	C885.822021,595.040833 816.677307,727.261292 746.858215,859.124695 
	C727.439819,895.799133 710.200134,933.629822 686.826050,968.263428 
	C651.712952,1020.290771 635.917114,1079.033813 632.304199,1141.068726 
	C631.106018,1161.642700 632.720154,1182.480713 634.349548,1203.095215 
	C636.689819,1232.703247 643.607666,1261.437744 654.162292,1289.237549 
	C686.360718,1374.045410 743.820923,1436.651855 822.951294,1479.715210 
	C863.538879,1501.803223 907.394958,1513.882324 953.377014,1517.924561 
	C967.179565,1519.137939 981.088440,1519.141357 995.510315,1519.857910 
	C995.698364,1519.807861 995.886475,1519.757935 996.379578,1519.858643 
	C996.379578,1519.858643 996.661682,1520.048706 997.267395,1520.545410 
z"/>
<path fill="#EC4221" opacity="1.000000" stroke="none" 
	d="
M994.948608,1519.698975 
	C981.088440,1519.141357 967.179565,1519.137939 953.377014,1517.924561 
	C907.394958,1513.882324 863.538879,1501.803223 822.951294,1479.715210 
	C743.820923,1436.651855 686.360718,1374.045410 654.162292,1289.237549 
	C643.607666,1261.437744 636.689819,1232.703247 634.349548,1203.095215 
	C632.720154,1182.480713 631.106018,1161.642700 632.304199,1141.068726 
	C635.917114,1079.033813 651.712952,1020.290771 686.826050,968.263428 
	C710.200134,933.629822 727.439819,895.799133 746.858215,859.124695 
	C816.677307,727.261292 885.822021,595.040833 955.221436,462.955231 
	C964.499939,445.295685 973.778076,427.635925 983.483704,409.163208 
	C995.987244,432.403748 1008.145020,455.001526 1020.629639,478.170380 
	C1021.087158,479.045563 1021.195618,479.361572 1021.351624,479.652039 
	C1093.941040,614.865723 1166.448853,750.123291 1239.211914,885.243469 
	C1250.982788,907.101990 1260.445312,930.546570 1279.165039,948.032288 
	C1279.284058,948.143372 1279.356689,948.303223 1279.455322,948.437073 
	C1321.327515,1005.289429 1343.172974,1069.311157 1346.772217,1139.532593 
	C1347.747192,1158.554443 1347.032959,1177.759033 1345.688599,1196.780518 
	C1343.770752,1223.912476 1338.022827,1250.425293 1329.531982,1276.312744 
	C1311.242065,1332.076172 1279.422607,1379.207764 1237.716309,1419.965210 
	C1204.754272,1452.177490 1167.331787,1477.811279 1124.440796,1495.034912 
	C1102.372681,1503.896729 1079.583496,1510.401001 1056.039429,1514.059692 
	C1045.166626,1515.749146 1034.320068,1517.729004 1023.388245,1518.879395 
	C1014.536438,1519.810913 1005.574646,1519.698242 996.661682,1520.048828 
	C996.661682,1520.048706 996.379578,1519.858643 996.111389,1519.653564 
	C995.545044,1519.531982 995.246826,1519.615479 994.948608,1519.698975 
M794.053467,1217.267822 
	C794.035828,1224.422607 794.228333,1231.586548 793.920715,1238.728882 
	C793.740112,1242.920288 795.218079,1244.091675 799.322083,1244.077515 
	C840.421448,1243.935547 881.521362,1243.972534 922.799011,1244.886108 
	C922.799011,1286.768921 922.799011,1328.651733 922.799011,1371.065430 
	C932.447632,1371.065430 941.247986,1371.065430 950.050293,1371.994629 
	C950.049561,1379.327881 950.330994,1386.676025 949.948792,1393.989258 
	C949.694580,1398.855225 951.332947,1400.173340 956.133972,1400.151611 
	C995.632935,1399.972534 1035.133423,1399.964355 1074.632324,1400.159668 
	C1079.614746,1400.184204 1081.139404,1398.951782 1081.117798,1393.791870 
	C1080.918213,1346.126343 1080.998901,1298.459595 1081.001221,1250.793213 
	C1081.001587,1244.008789 1081.009033,1244.001465 1087.812256,1244.001221 
	C1135.311890,1243.999023 1182.811646,1243.986694 1230.311279,1244.028809 
	C1233.587280,1244.031738 1235.997314,1244.044922 1235.980469,1239.455688 
	C1235.834473,1199.456543 1235.860229,1159.456421 1235.955566,1119.456909 
	C1235.964233,1115.809570 1234.479614,1114.933105 1231.173950,1114.997559 
	C1222.843750,1115.160278 1214.508423,1115.062134 1206.024292,1114.133545 
	C1206.024292,1104.861694 1206.024292,1095.589966 1206.024292,1085.836060 
	C1203.764282,1085.836060 1201.984009,1085.836060 1200.203613,1085.836060 
	C1176.916748,1085.836060 1153.630005,1085.862671 1130.343140,1085.827026 
	C1113.881836,1085.802002 1097.420532,1085.692749 1080.946289,1084.732178 
	C1080.963867,1044.453613 1080.926880,1004.174866 1081.081909,963.896790 
	C1081.097778,959.785645 1079.599365,958.770691 1075.831543,958.887512 
	C1068.348633,959.119629 1060.854492,958.990112 1053.186401,958.087219 
	C1053.186401,948.654724 1053.186401,939.222229 1053.186401,929.832153 
	C1009.397766,929.832153 966.342102,929.832153 922.790833,929.832153 
	C922.790833,981.856567 922.790833,1033.567261 922.790833,1085.925659 
	C869.790344,1085.925659 817.282593,1085.925659 764.848755,1085.925659 
	C764.848755,1129.631348 764.848755,1172.685181 764.848755,1216.378906 
	C774.797791,1216.378906 784.419312,1216.378906 794.053467,1217.267822 
z"/>
<path fill="#0798C7" opacity="1.000000" stroke="none" 
	d="
M996.964539,1520.297119 
	C1005.574646,1519.698242 1014.536438,1519.810913 1023.388245,1518.879395 
	C1034.320068,1517.729004 1045.166626,1515.749146 1056.039429,1514.059692 
	C1079.583496,1510.401001 1102.372681,1503.896729 1124.440796,1495.034912 
	C1167.331787,1477.811279 1204.754272,1452.177490 1237.716309,1419.965210 
	C1279.422607,1379.207764 1311.242065,1332.076172 1329.531982,1276.312744 
	C1338.022827,1250.425293 1343.770752,1223.912476 1345.688599,1196.780518 
	C1347.032959,1177.759033 1347.747192,1158.554443 1346.772217,1139.532593 
	C1343.172974,1069.311157 1321.327515,1005.289429 1279.455322,948.437073 
	C1279.356689,948.303223 1279.284058,948.143372 1279.165039,948.032288 
	C1260.445312,930.546570 1250.982788,907.101990 1239.211914,885.243469 
	C1166.448853,750.123291 1093.941040,614.865723 1021.351624,479.652039 
	C1021.195618,479.361572 1021.087158,479.045563 1020.898315,478.377869 
	C1029.070435,458.565552 1037.300659,439.116791 1045.818359,418.989105 
	C1046.824097,420.502502 1047.599487,421.459595 1048.152588,422.531372 
	C1072.211304,469.156769 1096.239990,515.797607 1120.294189,562.425232 
	C1158.016968,635.548401 1195.751099,708.665833 1233.488892,781.781311 
	C1258.698242,830.623657 1283.891724,879.474426 1309.199463,928.265747 
	C1311.175049,932.074524 1313.426758,936.062134 1316.520630,938.913696 
	C1330.675171,951.959473 1339.462524,968.657959 1348.368408,985.187378 
	C1370.899780,1027.006714 1384.841431,1071.695312 1389.885864,1118.867676 
	C1392.357910,1141.985474 1393.943726,1165.374878 1393.504639,1188.595459 
	C1391.874512,1274.781494 1365.302490,1352.674561 1311.001831,1419.939453 
	C1273.074097,1466.922363 1225.763184,1501.574829 1167.403076,1519.664307 
	C1134.509277,1529.860229 1100.805786,1534.522705 1066.395630,1532.670288 
	C1042.918579,1531.406494 1019.779785,1527.609009 996.964539,1520.297119 
z"/>
<path fill="#C6553F" opacity="1.000000" stroke="none" 
	d="
M995.229492,1519.778564 
	C995.246826,1519.615479 995.545044,1519.531982 995.958862,1519.578369 
	C995.886475,1519.757935 995.698364,1519.807861 995.229492,1519.778564 
z"/>
<path fill="#FFFFFF" opacity="1.000000" stroke="none" 
	d="
M950.048340,1371.065430 
	C941.247986,1371.065430 932.447632,1371.065430 922.799011,1371.065430 
	C922.799011,1328.651733 922.799011,1286.768921 922.803284,1243.963745 
	C922.807556,1234.257812 922.807556,1225.474243 922.807556,1216.163818 
	C920.526367,1216.163818 918.744324,1216.163818 916.962280,1216.163818 
	C890.974854,1216.163818 864.987366,1216.139282 839.000000,1216.173218 
	C824.013550,1216.192871 809.027222,1216.307251 794.040833,1216.378906 
	C784.419312,1216.378906 774.797791,1216.378906 764.848755,1216.378906 
	C764.848755,1172.685181 764.848755,1129.631348 764.848755,1085.925659 
	C817.282593,1085.925659 869.790344,1085.925659 922.790833,1085.925659 
	C922.790833,1033.567261 922.790833,981.856567 922.790833,929.832153 
	C966.342102,929.832153 1009.397766,929.832153 1053.186401,929.832153 
	C1053.186401,939.222229 1053.186401,948.654724 1053.188721,959.011963 
	C1053.190918,1001.734985 1053.190918,1043.533325 1053.190918,1085.399536 
	C1054.202515,1085.587036 1054.841675,1085.811035 1055.479614,1085.807739 
	C1063.972900,1085.764160 1072.466064,1085.688721 1080.959229,1085.621094 
	C1097.420532,1085.692749 1113.881836,1085.802002 1130.343140,1085.827026 
	C1153.630005,1085.862671 1176.916748,1085.836060 1200.203613,1085.836060 
	C1201.984009,1085.836060 1203.764282,1085.836060 1206.024292,1085.836060 
	C1206.024292,1095.589966 1206.024292,1104.861694 1206.025879,1115.058838 
	C1206.027466,1149.252319 1206.027466,1182.520752 1206.027466,1216.357056 
	C1154.822266,1216.357056 1104.132812,1216.357056 1052.929688,1216.357056 
	C1052.929688,1268.132080 1052.929688,1319.338623 1052.929688,1370.832031 
	C1044.105957,1370.832031 1035.799072,1370.813354 1027.492310,1370.835327 
	C1001.677673,1370.903809 975.862976,1370.987549 950.048340,1371.065430 
z"/>
<path fill="#B41D00" opacity="1.000000" stroke="none" 
	d="
M950.049316,1371.530029 
	C975.862976,1370.987549 1001.677673,1370.903809 1027.492310,1370.835327 
	C1035.799072,1370.813354 1044.105957,1370.832031 1052.929688,1370.832031 
	C1052.929688,1319.338623 1052.929688,1268.132080 1052.929688,1216.357056 
	C1104.132812,1216.357056 1154.822266,1216.357056 1206.027466,1216.357056 
	C1206.027466,1182.520752 1206.027466,1149.252319 1206.101318,1115.526367 
	C1214.508423,1115.062134 1222.843750,1115.160278 1231.173950,1114.997559 
	C1234.479614,1114.933105 1235.964233,1115.809570 1235.955566,1119.456909 
	C1235.860229,1159.456421 1235.834473,1199.456543 1235.980469,1239.455688 
	C1235.997314,1244.044922 1233.587280,1244.031738 1230.311279,1244.028809 
	C1182.811646,1243.986694 1135.311890,1243.999023 1087.812256,1244.001221 
	C1081.009033,1244.001465 1081.001587,1244.008789 1081.001221,1250.793213 
	C1080.998901,1298.459595 1080.918213,1346.126343 1081.117798,1393.791870 
	C1081.139404,1398.951782 1079.614746,1400.184204 1074.632324,1400.159668 
	C1035.133423,1399.964355 995.632935,1399.972534 956.133972,1400.151611 
	C951.332947,1400.173340 949.694580,1398.855225 949.948792,1393.989258 
	C950.330994,1386.676025 950.049561,1379.327881 950.049316,1371.530029 
z"/>
<path fill="#B41D00" opacity="1.000000" stroke="none" 
	d="
M794.047119,1216.823364 
	C809.027222,1216.307251 824.013550,1216.192871 839.000000,1216.173218 
	C864.987366,1216.139282 890.974854,1216.163818 916.962280,1216.163818 
	C918.744324,1216.163818 920.526367,1216.163818 922.807556,1216.163818 
	C922.807556,1225.474243 922.807556,1234.257812 922.714355,1243.500244 
	C881.521362,1243.972534 840.421448,1243.935547 799.322083,1244.077515 
	C795.218079,1244.091675 793.740112,1242.920288 793.920715,1238.728882 
	C794.228333,1231.586548 794.035828,1224.422607 794.047119,1216.823364 
z"/>
<path fill="#B41D00" opacity="1.000000" stroke="none" 
	d="
M1080.952759,1085.176636 
	C1072.466064,1085.688721 1063.972900,1085.764160 1055.479614,1085.807739 
	C1054.841675,1085.811035 1054.202515,1085.587036 1053.190918,1085.399536 
	C1053.190918,1043.533325 1053.190918,1001.734985 1053.277954,959.473389 
	C1060.854492,958.990112 1068.348633,959.119629 1075.831543,958.887512 
	C1079.599365,958.770691 1081.097778,959.785645 1081.081909,963.896790 
	C1080.926880,1004.174866 1080.963867,1044.453613 1080.952759,1085.176636 
z"/>
</svg>